<?xml version="1.0" encoding="UTF-8"?>
<svg version="1.1" xmlns="http://www.w3.org/2000/svg" width="1080" height="1080">
<path d="M0 0 C10.60458754 10.36402979 10.60458754 10.36402979 13.00390625 17.01953125 C16.42350613 24.44791884 24.52276573 27.1302538 31.44824219 30.64941406 C35.9405729 33.00030552 40.27742269 35.6072092 44.62890625 38.20703125 C45.53697021 38.74585938 46.44503418 39.2846875 47.38061523 39.83984375 C55.70194826 44.78255245 63.99163794 49.77816112 72.28442383 54.76855469 C77.76197863 58.05878543 83.2529873 61.31409733 88.81640625 64.45703125 C93.37733999 67.03986485 97.89850777 69.67499075 102.37890625 72.39453125 C103.44753906 73.04164063 104.51617188 73.68875 105.6171875 74.35546875 C108.06640625 76.01953125 108.06640625 76.01953125 109.06640625 78.01953125 C108.38261559 80.91821731 107.62381363 83.73928632 106.78515625 86.59375 C106.53399048 87.4686055 106.28282471 88.343461 106.02404785 89.24482727 C105.21158518 92.06756018 104.38894184 94.88721919 103.56640625 97.70703125 C103.04234374 99.5265128 102.51889987 101.34617267 101.99609375 103.16601562 C99.27682818 112.59872976 96.47560752 122.00396218 93.6015625 131.390625 C89.93930177 143.35507439 86.45829487 155.36867826 83.00390625 167.39453125 C82.35558492 169.64611093 81.70714492 171.89765644 81.05859375 174.14916992 C77.76526901 185.58969067 74.48828716 197.03480636 71.2265625 208.484375 C70.91669907 209.57147766 70.60683563 210.65858032 70.2875824 211.77862549 C68.8214509 216.92302284 67.35748048 222.06801235 65.89819336 227.21435547 C62.91821594 237.69892562 59.82856595 248.14190318 56.62809753 258.56129456 C54.70655479 264.84288861 52.87723032 271.14402158 51.1171875 277.47265625 C50.65693027 279.1158936 50.1966442 280.75912288 49.73632812 282.40234375 C49.04484084 284.87347079 48.35818318 287.34555707 47.68334961 289.82128906 C47.00786213 292.29231928 46.3142741 294.75764592 45.6171875 297.22265625 C45.41918045 297.96622375 45.2211734 298.70979126 45.01716614 299.47589111 C44.16194859 302.4503521 43.44354298 304.64138962 41.23388672 306.85693359 C38.8013999 308.1616759 36.37498946 309.33185933 33.8359375 310.41796875 C32.74756592 310.8867041 31.65919434 311.35543945 30.5378418 311.83837891 C29.33039307 312.35190918 28.12294434 312.86543945 26.87890625 313.39453125 C25.58287897 313.95051934 24.28706938 314.50701509 22.99145508 315.06396484 C19.22549772 316.68107548 15.45652285 318.29105418 11.68713379 319.90014648 C3.61864912 323.34641806 -4.44506281 326.8038725 -12.50997925 330.25848389 C-14.67504084 331.18579283 -16.8401822 332.11291556 -19.00540161 333.03985596 C-32.24784199 338.70929483 -45.47257014 344.4106311 -58.64453125 350.2421875 C-66.9766969 353.92953746 -75.33080164 357.56671534 -83.68359375 361.20703125 C-84.5139212 361.56893555 -85.34424866 361.93083984 -86.19973755 362.30371094 C-102.26405011 369.30383503 -118.34644172 376.26187453 -134.43309021 383.21047974 C-141.74811864 386.37055261 -149.05999317 389.53788361 -156.37109375 392.70703125 C-157.59960897 393.23950288 -158.8281246 393.77197358 -160.05664062 394.30444336 C-163.68234424 395.87601807 -167.30798164 397.44774544 -170.93359375 399.01953125 C-175.78767809 401.12388788 -180.64181336 403.2281269 -185.49609375 405.33203125 C-186.4082515 405.72737564 -186.4082515 405.72737564 -187.33883667 406.13070679 C-198.82605183 411.1091113 -210.31726051 416.07826376 -221.80889893 421.04644775 C-235.9747324 427.17090184 -250.13658983 433.30447393 -264.29638672 439.44287109 C-269.88120774 441.86378492 -275.46637933 444.28388956 -281.05154419 446.70401001 C-284.17891031 448.05914621 -287.30625077 449.41434165 -290.43359375 450.76953125 C-291.68359363 451.3111982 -292.93359363 451.85286487 -294.18359375 452.39453125 C-294.80234375 452.66265625 -295.42109375 452.93078125 -296.05859375 453.20703125 C-331.68359385 468.64453129 -331.68359385 468.64453129 -333.55870056 469.45707703 C-334.80834502 469.99858996 -336.05798898 470.54010404 -337.30763245 471.08161926 C-340.4380682 472.43814737 -343.56851263 473.79465546 -346.69897461 475.15112305 C-352.86200625 477.82166514 -359.02490129 480.49252146 -365.1875 483.1640625 C-379.72475956 489.46562136 -394.26556409 495.7589228 -408.80889893 502.04644775 C-423.00845314 508.18548066 -437.20397869 514.33376037 -451.39746094 520.48681641 C-454.79731011 521.96045995 -458.1974265 523.4334848 -461.59765625 524.90625 C-477.04199006 531.59617202 -492.48257815 538.29470031 -507.92214966 544.99560547 C-511.41215258 546.51022603 -514.90223031 548.02467411 -518.39233398 549.5390625 C-520.66390181 550.52473482 -522.93546759 551.51041184 -525.20703125 552.49609375 C-526.31033279 552.97483948 -527.41363434 553.45358521 -528.55036926 553.94683838 C-534.2416072 556.41660428 -539.93232085 558.88756738 -545.62200928 561.36090088 C-548.4668797 562.59745463 -551.3121304 563.83313142 -554.1574707 565.06860352 C-556.00445813 565.87101246 -557.85087073 566.67474415 -559.69726562 567.47851562 C-560.76783203 567.94322266 -561.83839844 568.40792969 -562.94140625 568.88671875 C-563.8452002 569.27972168 -564.74899414 569.67272461 -565.68017578 570.07763672 C-567.40270248 570.79762675 -569.16245415 571.42915138 -570.93359375 572.01953125 C-578.19417875 559.95928068 -585.02685598 547.67500646 -591.80459595 535.33961487 C-592.3209108 534.4000016 -592.3209108 534.4000016 -592.84765625 533.44140625 C-593.36360855 532.50233681 -593.36360855 532.50233681 -593.88998413 531.54429626 C-598.94006831 522.36066336 -604.0800591 513.22723832 -609.21142578 504.08886719 C-610.96383847 500.96562756 -612.71291785 497.840544 -614.4609375 494.71484375 C-620.62733414 483.68919721 -626.8158238 472.67663195 -633.03930664 461.68310547 C-637.02417666 454.6397708 -640.98343451 447.58238326 -644.93359375 440.51953125 C-649.48355748 432.38743987 -654.04135351 424.25989725 -658.62109375 416.14453125 C-659.09482422 415.30341797 -659.56855469 414.46230469 -660.05664062 413.59570312 C-660.53552734 412.74814453 -661.01441406 411.90058594 -661.5078125 411.02734375 C-661.99021393 410.16126495 -662.47261536 409.29518616 -662.96963501 408.40286255 C-664.43850363 405.87242794 -665.94911826 403.42596321 -667.53610229 400.97201538 C-674.77271155 389.53992684 -678.06633019 379.55724775 -679.8671875 366.23828125 C-680.15133738 364.36311593 -680.4391118 362.48849686 -680.73019409 360.61439514 C-681.33904386 356.6463459 -681.92361682 352.6758255 -682.48794556 348.70120239 C-683.38112405 342.41058234 -684.32848857 336.12883422 -685.28393555 329.84741211 C-686.41919182 322.36082367 -687.54205898 314.87260684 -688.64698124 307.38148022 C-690.42013034 295.36336351 -692.27231063 283.36032265 -694.20703125 271.3671875 C-694.33595387 270.56790644 -694.46487648 269.76862537 -694.59770584 268.94512367 C-695.23176282 265.01808249 -695.8677243 261.09135294 -696.50457764 257.1647644 C-697.60403857 250.37957162 -698.68506315 243.59143373 -699.76787186 236.80356789 C-701.43866979 226.33228686 -703.11833174 215.86247539 -704.81116962 205.39473438 C-705.7841279 199.37779311 -706.7530539 193.36021203 -707.71901226 187.34214306 C-708.39254435 183.14783746 -709.07145456 178.95445164 -709.75456429 174.76169586 C-710.26337017 171.62840998 -710.76387945 168.49379801 -711.265625 165.359375 C-711.45137085 164.2301059 -711.6371167 163.10083679 -711.82849121 161.93734741 C-711.99055054 160.91509064 -712.15260986 159.89283386 -712.31958008 158.83959961 C-712.46325516 157.95106796 -712.60693024 157.06253632 -712.75495911 156.14707947 C-712.93359375 154.01953125 -712.93359375 154.01953125 -711.93359375 152.01953125 C-709.17186819 151.03684202 -706.44129531 150.1736058 -703.62890625 149.359375 C-702.74665878 149.09762482 -701.86441132 148.83587463 -700.95542908 148.56619263 C-699.01717781 147.99267699 -697.07780074 147.42295632 -695.13748169 146.85647583 C-692.03111652 145.94900425 -688.92832037 145.03008366 -685.82592773 144.10913086 C-674.24014665 140.68228603 -662.6281254 137.35968304 -650.98799133 134.12334251 C-646.9652465 133.00258285 -642.94550751 131.87106716 -638.92563248 130.74006367 C-635.64565552 129.81883226 -632.36357105 128.90705458 -629.07550049 128.0151062 C-625.36755242 127.00603707 -621.6679217 125.97039681 -617.96875 124.9296875 C-616.86853012 124.63836945 -615.76831024 124.34705139 -614.63475037 124.04690552 C-607.52435405 122.01059891 -603.13354937 119.21748612 -597.93359375 114.01953125 C-586.09962623 104.85726303 -573.36701136 98.10822629 -559.05859375 93.70703125 C-558.31794678 93.47669189 -557.5772998 93.24635254 -556.81420898 93.0090332 C-545.77433507 89.82995084 -534.26102172 87.4709255 -522.75390625 88.32421875 C-494.88675345 90.327527 -470.52553625 82.96019428 -444.12731934 74.73898315 C-435.00725561 71.90657547 -425.84358826 69.2905482 -416.62574005 66.79545212 C-414.43880532 66.20274854 -412.2531098 65.60569011 -410.06781006 65.00698853 C-409.35424725 64.81152876 -408.64068443 64.61606899 -407.9054985 64.4146862 C-406.47697263 64.02326912 -405.04846754 63.63177613 -403.61998367 63.24020576 C-400.14419642 62.28902261 -396.66651138 61.3465096 -393.18334961 60.42266846 C-389.30698764 59.39322221 -385.44488667 58.31729417 -381.58203125 57.23828125 C-379.8781575 56.79825272 -379.8781575 56.79825272 -378.13986206 56.34933472 C-369.85506821 53.98275242 -364.97420581 50.03719404 -358.93359375 44.01953125 C-345.54196538 33.46479309 -329.55304705 29.13822831 -313.09350586 26.38452148 C-311.27421961 26.07709151 -309.46373762 25.71820198 -307.65625 25.34765625 C-304.29723784 25.05158382 -301.54518961 25.20797379 -298.2109375 25.5546875 C-271.02978723 27.85561592 -245.92599998 18.57216288 -220.35928345 10.54396057 C-212.23103744 7.99702523 -204.07200099 5.62526749 -195.83984375 3.43359375 C-194.36075783 3.03527344 -194.36075783 3.03527344 -192.85179138 2.62890625 C-185.46402346 0.64098729 -185.46402346 0.64098729 -181.8664856 -0.27502441 C-170.02237724 -3.09669787 -170.02237724 -3.09669787 -161.25024414 -11.125 C-153.48460376 -22.06860595 -134.63334759 -25.99686006 -122.2890625 -28.421875 C-83.1739082 -34.9334781 -30.51956717 -26.80699012 0 0 Z " fill="#AC0101" transform="translate(841.93359375,268.98046875)"/>
<path d="M0 0 C6.43455515 5.46496465 12.3054338 11.91127036 13.30078125 20.63671875 C13.3125 23.125 13.3125 23.125 13 27 C13.66 25.35 14.32 23.7 15 22 C24.22570472 27.24831186 33.4119112 32.55897111 42.5625 37.9375 C44.44830782 39.04496321 46.33424111 40.15221256 48.22018433 41.25944519 C49.51575476 42.02009783 50.81126645 42.78085054 52.10671997 43.54170227 C56.69156966 46.23394163 61.28048484 48.91915757 65.87109375 51.6015625 C67.79586812 52.72703766 69.72056565 53.8526441 71.64523315 54.978302 C72.85712034 55.68670676 74.06928702 56.39463366 75.2817688 57.10202026 C79.19679865 59.38640133 83.10086114 61.68861342 87 64 C87.60424805 64.35406921 88.20849609 64.70813843 88.83105469 65.07293701 C90.65314949 66.14272571 92.46780462 67.22422276 94.28125 68.30859375 C95.35439453 68.94466553 96.42753906 69.5807373 97.53320312 70.23608398 C100 72 100 72 101 75 C99.22496094 75.58007812 99.22496094 75.58007812 97.4140625 76.171875 C95.8176537 76.69775084 94.22130264 77.22380198 92.625 77.75 C91.85027344 78.00265625 91.07554687 78.2553125 90.27734375 78.515625 C86.22723455 79.85450407 82.24350945 81.27861488 78.29492188 82.89404297 C73.36604609 84.87775703 68.3901719 86.66934063 63.3671875 88.3984375 C62.46900803 88.70986191 61.57082855 89.02128632 60.64543152 89.34214783 C58.72174961 90.00887761 56.79770339 90.67455707 54.87332153 91.33926392 C50.77316902 92.75561499 46.67489697 94.17737093 42.57649231 95.59877014 C40.47045307 96.32912417 38.36432259 97.05921517 36.25810242 97.78904724 C26.18674126 101.27928345 16.12285502 104.790679 6.0625 108.3125 C5.23535492 108.60196503 4.40820984 108.89143005 3.55599976 109.18966675 C-8.3091915 113.34305746 -20.16030488 117.53439956 -32.00292969 121.75170898 C-39.39614443 124.38142352 -46.79931908 126.98118451 -54.2109375 129.55859375 C-55.10242996 129.86861328 -55.99392242 130.17863281 -56.91242981 130.49804688 C-58.7451663 131.13526786 -60.57791484 131.77245418 -62.41067505 132.40960693 C-63.32702728 132.72818665 -64.24337952 133.04676636 -65.1875 133.375 C-66.10199921 133.69293518 -67.01649841 134.01087036 -67.95870972 134.33843994 C-80.62848117 138.7461552 -93.26650393 143.23255288 -105.875 147.8125 C-118.6442394 152.44995344 -131.45296021 156.95064287 -144.3046875 161.35546875 C-153.33963032 164.4540137 -162.3588854 167.59713615 -171.375 170.75 C-172.21709015 171.04441986 -173.0591803 171.33883972 -173.92678833 171.6421814 C-187.52653752 176.40069114 -201.0921007 181.25062209 -214.64657593 186.13638306 C-227.42015551 190.73895194 -240.22630288 195.23017222 -253.07421875 199.62109375 C-260.34517254 202.10902706 -267.59633176 204.65272897 -274.84838867 207.19506836 C-279.67436639 208.88682593 -284.50291798 210.5711246 -289.33203125 212.25390625 C-306.31201356 218.17569936 -323.27011456 224.15148743 -340.1875 230.25 C-353.78033284 235.14995805 -367.40153127 239.94829713 -381.07421875 244.62109375 C-396.02707481 249.74104648 -410.9196725 255.02905171 -425.79638672 260.36547852 C-439.79110289 265.38355062 -453.80080628 270.34262651 -467.86889648 275.15161133 C-478.61396816 278.837987 -489.30659028 282.66684908 -500 286.5 C-514.5362751 291.71021812 -529.09292437 296.84400835 -543.70703125 301.83203125 C-547.84507729 303.24722908 -551.96518098 304.70190876 -556.07421875 306.19921875 C-557.00830566 306.53695313 -557.94239258 306.8746875 -558.90478516 307.22265625 C-560.612201 307.84250812 -562.31661605 308.47072481 -564.01708984 309.109375 C-570.50313206 311.45403466 -570.50313206 311.45403466 -574 310 C-575.5012207 308.32373047 -575.5012207 308.32373047 -576.92578125 306.1171875 C-577.46734863 305.2912207 -578.00891602 304.46525391 -578.56689453 303.61425781 C-579.14294434 302.71030273 -579.71899414 301.80634766 -580.3125 300.875 C-580.92206543 299.94010742 -581.53163086 299.00521484 -582.15966797 298.04199219 C-584.11753909 295.03502971 -586.05937151 292.0181132 -588 289 C-590.53667996 285.08008603 -593.0797805 281.16437348 -595.625 277.25 C-596.2541481 276.28049911 -596.8832962 275.31099823 -597.5315094 274.31211853 C-601.70592129 267.90553773 -606.0283526 261.63177961 -610.47801208 255.41444397 C-617.11115361 246.10566142 -623.30529565 236.5008593 -629.5625 226.9375 C-637.55110114 214.73999621 -645.5898171 202.59334359 -653.89199829 190.60678101 C-656.32477106 187.07886851 -658.69626507 183.51022048 -661.0625 179.9375 C-662.05840966 178.43607579 -663.05450694 176.93477602 -664.05078125 175.43359375 C-664.53756348 174.69995605 -665.0243457 173.96631836 -665.52587891 173.21044922 C-667.00057015 170.99914507 -668.48831901 168.79721009 -669.98046875 166.59765625 C-670.68127563 165.56040405 -670.68127563 165.56040405 -671.39624023 164.50219727 C-672.27884142 163.19683887 -673.16491178 161.89381738 -674.05493164 160.59350586 C-677 156.22436801 -677 156.22436801 -677 154 C-670.77208724 151.56458535 -664.48792153 149.59503274 -658.0625 147.75 C-657.01908447 147.44771484 -655.97566895 147.14542969 -654.90063477 146.83398438 C-646.39028528 144.37720511 -637.85695787 142.0052162 -629.32226562 139.63476562 C-620.2138506 137.0903559 -611.16639509 134.36272492 -602.12890625 131.578125 C-601.28344238 131.31837891 -600.43797852 131.05863281 -599.56689453 130.79101562 C-597.7852718 130.24198979 -596.00509141 129.68827015 -594.22607422 129.13085938 C-593.33549316 128.85564453 -592.44491211 128.58042969 -591.52734375 128.296875 C-590.7293335 128.04776367 -589.93132324 127.79865234 -589.10913086 127.54199219 C-587 127 -587 127 -584 127 C-584.268125 127.78375 -584.53625 128.5675 -584.8125 129.375 C-585.204375 130.57125 -585.59625 131.7675 -586 133 C-586.26425781 133.63421875 -586.52851562 134.2684375 -586.80078125 134.921875 C-590.16219287 143.90688046 -589.26792392 153.56083416 -589 163 C-588.94392578 161.36804688 -588.94392578 161.36804688 -588.88671875 159.703125 C-588.18467703 142.7632257 -585.3768148 129.25662186 -572.59765625 117.16015625 C-545.87595101 94.93894874 -507.49931135 92.40448359 -474.27734375 95.42578125 C-459.56375996 97.21362161 -444.07802731 102.29608352 -432 111 C-431.15179688 111.59425781 -430.30359375 112.18851563 -429.4296875 112.80078125 C-419.69003904 120.05463884 -414.52801771 128.47368128 -411 140 C-411.27194924 132.65737046 -413.85164426 127.98112099 -418 122 C-418.40863281 121.39285156 -418.81726563 120.78570312 -419.23828125 120.16015625 C-426.88706084 110.09597258 -439.58114775 103.63842716 -451 99 C-452.10794922 98.52626953 -452.10794922 98.52626953 -453.23828125 98.04296875 C-458.34051716 95.96730965 -463.58652168 94.94292143 -469 94 C-466.35755269 92.60311735 -463.84458931 91.57084702 -460.96362305 90.7824707 C-460.17636337 90.56468964 -459.3891037 90.34690857 -458.57798767 90.12252808 C-457.73111893 89.89260162 -456.88425018 89.66267517 -456.01171875 89.42578125 C-455.12565445 89.18135284 -454.23959015 88.93692444 -453.32667542 88.68508911 C-451.43140855 88.16235886 -449.53567639 87.64131322 -447.63952637 87.12179565 C-442.69309371 85.76573512 -437.75057131 84.39563313 -432.80859375 83.0234375 C-431.84515045 82.75597214 -430.88170715 82.48850677 -429.8890686 82.2129364 C-423.3127792 80.38108056 -416.76620568 78.47377431 -410.25 76.4375 C-399.8867065 73.20664457 -389.44778058 70.25576856 -379 67.3125 C-377.75216736 66.96044998 -377.75216736 66.96044998 -376.47912598 66.60128784 C-366.0079035 63.6494707 -355.52068366 60.7707219 -345 58 C-345.144375 59.12792969 -345.28875 60.25585938 -345.4375 61.41796875 C-346.91207171 73.66006813 -347.2206904 85.67811955 -347 98 C-346.93268677 96.80624756 -346.93268677 96.80624756 -346.86401367 95.58837891 C-346.65085429 91.93308038 -346.41930744 88.27916144 -346.1875 84.625 C-346.08211914 82.74748047 -346.08211914 82.74748047 -345.97460938 80.83203125 C-345.08571534 67.24973035 -342.15886701 56.23039113 -332.0625 46.65625 C-316.50617623 34.16405061 -297.17365995 31.63088975 -277.94458008 31.73925781 C-275.7004057 31.74993858 -273.4570403 31.73931753 -271.21289062 31.7265625 C-261.32465453 31.71763511 -251.78244771 32.5387451 -242 34 C-241.08460449 34.13462646 -240.16920898 34.26925293 -239.22607422 34.40795898 C-221.02598732 37.28522391 -201.40781702 46.28849644 -189.0625 60.0625 C-183.6254562 67.80616844 -183.00278541 75.83336165 -182 85 C-180.62606063 77.17740974 -179.84230521 70.10587837 -184 63 C-194.78220497 48.70634897 -208.74431271 43.01412234 -225 37 C-226.17820312 36.56300781 -227.35640625 36.12601562 -228.5703125 35.67578125 C-234.95629765 33.43318333 -241.30887032 32.00103515 -248 31 C-244.80356404 29.26476887 -241.62294442 28.20334059 -238.13452148 27.1875 C-236.35078125 26.6650898 -236.35078125 26.6650898 -234.53100586 26.13212585 C-233.22772887 25.75465716 -231.92442403 25.37728463 -230.62109375 25 C-229.26309248 24.60393471 -227.90518411 24.20755077 -226.54736328 23.81086731 C-222.92507262 22.75372761 -219.30139013 21.70143774 -215.67737961 20.65021133 C-212.69882051 19.78556982 -209.7210893 18.91809722 -206.74336338 18.05059147 C-185.84902677 11.96378626 -164.94275746 5.9183506 -144 0 C-143.00433381 3.16968127 -143.03797599 5.48634902 -143.55859375 8.75390625 C-143.69740967 9.68259521 -143.83622559 10.61128418 -143.97924805 11.56811523 C-144.13047119 12.55626221 -144.28169434 13.54440918 -144.4375 14.5625 C-145.95242227 25.11827697 -146.33537755 35.35486811 -146 46 C-145.94392578 44.61554688 -145.94392578 44.61554688 -145.88671875 43.203125 C-145.44438699 34.42587521 -144.50904794 25.8573183 -143.10424805 17.18066406 C-142.30309289 12.21035631 -141.71855129 7.28818652 -141.36743164 2.26416016 C-140.43978827 -3.45209538 -136.80266216 -7.61352348 -132.4375 -11.1875 C-99.13832619 -34.00704555 -30.09608777 -25.143567 0 0 Z " fill="#FE0101" transform="translate(827,280)"/>
<path d="M0 0 C10.60458754 10.36402979 10.60458754 10.36402979 13.00390625 17.01953125 C16.42350613 24.44791884 24.52276573 27.1302538 31.44824219 30.64941406 C35.9405729 33.00030552 40.27742269 35.6072092 44.62890625 38.20703125 C45.53697021 38.74585938 46.44503418 39.2846875 47.38061523 39.83984375 C55.70194826 44.78255245 63.99163794 49.77816112 72.28442383 54.76855469 C77.76197863 58.05878543 83.2529873 61.31409733 88.81640625 64.45703125 C93.37733999 67.03986485 97.89850777 69.67499075 102.37890625 72.39453125 C103.44753906 73.04164063 104.51617188 73.68875 105.6171875 74.35546875 C108.06640625 76.01953125 108.06640625 76.01953125 109.06640625 78.01953125 C108.38261559 80.91821731 107.62381363 83.73928632 106.78515625 86.59375 C106.53399048 87.4686055 106.28282471 88.343461 106.02404785 89.24482727 C105.21158518 92.06756018 104.38894184 94.88721919 103.56640625 97.70703125 C103.04234374 99.5265128 102.51889987 101.34617267 101.99609375 103.16601562 C99.27682818 112.59872976 96.47560752 122.00396218 93.6015625 131.390625 C89.93930177 143.35507439 86.45829487 155.36867826 83.00390625 167.39453125 C82.35558492 169.64611093 81.70714492 171.89765644 81.05859375 174.14916992 C77.76526901 185.58969067 74.48828716 197.03480636 71.2265625 208.484375 C70.91669907 209.57147766 70.60683563 210.65858032 70.2875824 211.77862549 C68.8214509 216.92302284 67.35748048 222.06801235 65.89819336 227.21435547 C62.91821594 237.69892562 59.82856595 248.14190318 56.62809753 258.56129456 C54.70655479 264.84288861 52.87723032 271.14402158 51.1171875 277.47265625 C50.65693027 279.1158936 50.1966442 280.75912288 49.73632812 282.40234375 C49.04484084 284.87347079 48.35818318 287.34555707 47.68334961 289.82128906 C47.00786213 292.29231928 46.3142741 294.75764592 45.6171875 297.22265625 C45.41918045 297.96622375 45.2211734 298.70979126 45.01716614 299.47589111 C44.16194859 302.4503521 43.44354298 304.64138962 41.23388672 306.85693359 C38.8013999 308.1616759 36.37498946 309.33185933 33.8359375 310.41796875 C32.74756592 310.8867041 31.65919434 311.35543945 30.5378418 311.83837891 C29.33039307 312.35190918 28.12294434 312.86543945 26.87890625 313.39453125 C25.58287897 313.95051934 24.28706938 314.50701509 22.99145508 315.06396484 C19.22549772 316.68107548 15.45652285 318.29105418 11.68713379 319.90014648 C3.61864912 323.34641806 -4.44506281 326.8038725 -12.50997925 330.25848389 C-14.67504084 331.18579283 -16.8401822 332.11291556 -19.00540161 333.03985596 C-32.24784199 338.70929483 -45.47257014 344.4106311 -58.64453125 350.2421875 C-66.9766969 353.92953746 -75.33080164 357.56671534 -83.68359375 361.20703125 C-84.5139212 361.56893555 -85.34424866 361.93083984 -86.19973755 362.30371094 C-102.26405011 369.30383503 -118.34644172 376.26187453 -134.43309021 383.21047974 C-141.74811864 386.37055261 -149.05999317 389.53788361 -156.37109375 392.70703125 C-157.59960897 393.23950288 -158.8281246 393.77197358 -160.05664062 394.30444336 C-163.68234424 395.87601807 -167.30798164 397.44774544 -170.93359375 399.01953125 C-175.78767809 401.12388788 -180.64181336 403.2281269 -185.49609375 405.33203125 C-186.4082515 405.72737564 -186.4082515 405.72737564 -187.33883667 406.13070679 C-198.82605183 411.1091113 -210.31726051 416.07826376 -221.80889893 421.04644775 C-235.9747324 427.17090184 -250.13658983 433.30447393 -264.29638672 439.44287109 C-269.88120774 441.86378492 -275.46637933 444.28388956 -281.05154419 446.70401001 C-284.17891031 448.05914621 -287.30625077 449.41434165 -290.43359375 450.76953125 C-291.68359363 451.3111982 -292.93359363 451.85286487 -294.18359375 452.39453125 C-294.80234375 452.66265625 -295.42109375 452.93078125 -296.05859375 453.20703125 C-331.68359385 468.64453129 -331.68359385 468.64453129 -333.55870056 469.45707703 C-334.80834502 469.99858996 -336.05798898 470.54010404 -337.30763245 471.08161926 C-340.4380682 472.43814737 -343.56851263 473.79465546 -346.69897461 475.15112305 C-352.86200625 477.82166514 -359.02490129 480.49252146 -365.1875 483.1640625 C-379.72475956 489.46562136 -394.26556409 495.7589228 -408.80889893 502.04644775 C-423.00845314 508.18548066 -437.20397869 514.33376037 -451.39746094 520.48681641 C-454.79731011 521.96045995 -458.1974265 523.4334848 -461.59765625 524.90625 C-477.04199006 531.59617202 -492.48257815 538.29470031 -507.92214966 544.99560547 C-511.41215258 546.51022603 -514.90223031 548.02467411 -518.39233398 549.5390625 C-520.66390181 550.52473482 -522.93546759 551.51041184 -525.20703125 552.49609375 C-526.31033279 552.97483948 -527.41363434 553.45358521 -528.55036926 553.94683838 C-534.2416072 556.41660428 -539.93232085 558.88756738 -545.62200928 561.36090088 C-548.4668797 562.59745463 -551.3121304 563.83313142 -554.1574707 565.06860352 C-556.00445813 565.87101246 -557.85087073 566.67474415 -559.69726562 567.47851562 C-560.76783203 567.94322266 -561.83839844 568.40792969 -562.94140625 568.88671875 C-563.8452002 569.27972168 -564.74899414 569.67272461 -565.68017578 570.07763672 C-567.40270248 570.79762675 -569.16245415 571.42915138 -570.93359375 572.01953125 C-578.19417875 559.95928068 -585.02685598 547.67500646 -591.80459595 535.33961487 C-592.3209108 534.4000016 -592.3209108 534.4000016 -592.84765625 533.44140625 C-593.36360855 532.50233681 -593.36360855 532.50233681 -593.88998413 531.54429626 C-598.94006831 522.36066336 -604.0800591 513.22723832 -609.21142578 504.08886719 C-610.96383847 500.96562756 -612.71291785 497.840544 -614.4609375 494.71484375 C-620.62733414 483.68919721 -626.8158238 472.67663195 -633.03930664 461.68310547 C-637.02417666 454.6397708 -640.98343451 447.58238326 -644.93359375 440.51953125 C-649.48355748 432.38743987 -654.04135351 424.25989725 -658.62109375 416.14453125 C-659.09482422 415.30341797 -659.56855469 414.46230469 -660.05664062 413.59570312 C-660.53552734 412.74814453 -661.01441406 411.90058594 -661.5078125 411.02734375 C-661.99021393 410.16126495 -662.47261536 409.29518616 -662.96963501 408.40286255 C-664.43850363 405.87242794 -665.94911826 403.42596321 -667.53610229 400.97201538 C-674.77271155 389.53992684 -678.06633019 379.55724775 -679.8671875 366.23828125 C-680.15133738 364.36311593 -680.4391118 362.48849686 -680.73019409 360.61439514 C-681.33904386 356.6463459 -681.92361682 352.6758255 -682.48794556 348.70120239 C-683.38112405 342.41058234 -684.32848857 336.12883422 -685.28393555 329.84741211 C-686.41919182 322.36082367 -687.54205898 314.87260684 -688.64698124 307.38148022 C-690.42013034 295.36336351 -692.27231063 283.36032265 -694.20703125 271.3671875 C-694.33595387 270.56790644 -694.46487648 269.76862537 -694.59770584 268.94512367 C-695.23176282 265.01808249 -695.8677243 261.09135294 -696.50457764 257.1647644 C-697.60403857 250.37957162 -698.68506315 243.59143373 -699.76787186 236.80356789 C-701.43866979 226.33228686 -703.11833174 215.86247539 -704.81116962 205.39473438 C-705.7841279 199.37779311 -706.7530539 193.36021203 -707.71901226 187.34214306 C-708.39254435 183.14783746 -709.07145456 178.95445164 -709.75456429 174.76169586 C-710.26337017 171.62840998 -710.76387945 168.49379801 -711.265625 165.359375 C-711.45137085 164.2301059 -711.6371167 163.10083679 -711.82849121 161.93734741 C-711.99055054 160.91509064 -712.15260986 159.89283386 -712.31958008 158.83959961 C-712.46325516 157.95106796 -712.60693024 157.06253632 -712.75495911 156.14707947 C-712.93359375 154.01953125 -712.93359375 154.01953125 -711.93359375 152.01953125 C-709.17186819 151.03684202 -706.44129531 150.1736058 -703.62890625 149.359375 C-702.74665878 149.09762482 -701.86441132 148.83587463 -700.95542908 148.56619263 C-699.01717781 147.99267699 -697.07780074 147.42295632 -695.13748169 146.85647583 C-692.03111652 145.94900425 -688.92832037 145.03008366 -685.82592773 144.10913086 C-674.24014665 140.68228603 -662.6281254 137.35968304 -650.98799133 134.12334251 C-646.9652465 133.00258285 -642.94550751 131.87106716 -638.92563248 130.74006367 C-635.64565552 129.81883226 -632.36357105 128.90705458 -629.07550049 128.0151062 C-625.36755242 127.00603707 -621.6679217 125.97039681 -617.96875 124.9296875 C-616.86853012 124.63836945 -615.76831024 124.34705139 -614.63475037 124.04690552 C-607.52435405 122.01059891 -603.13354937 119.21748612 -597.93359375 114.01953125 C-586.09962623 104.85726303 -573.36701136 98.10822629 -559.05859375 93.70703125 C-558.31794678 93.47669189 -557.5772998 93.24635254 -556.81420898 93.0090332 C-545.77433507 89.82995084 -534.26102172 87.4709255 -522.75390625 88.32421875 C-494.88675345 90.327527 -470.52553625 82.96019428 -444.12731934 74.73898315 C-435.00725561 71.90657547 -425.84358826 69.2905482 -416.62574005 66.79545212 C-414.43880532 66.20274854 -412.2531098 65.60569011 -410.06781006 65.00698853 C-409.35424725 64.81152876 -408.64068443 64.61606899 -407.9054985 64.4146862 C-406.47697263 64.02326912 -405.04846754 63.63177613 -403.61998367 63.24020576 C-400.14419642 62.28902261 -396.66651138 61.3465096 -393.18334961 60.42266846 C-389.30698764 59.39322221 -385.44488667 58.31729417 -381.58203125 57.23828125 C-379.8781575 56.79825272 -379.8781575 56.79825272 -378.13986206 56.34933472 C-369.85506821 53.98275242 -364.97420581 50.03719404 -358.93359375 44.01953125 C-345.54196538 33.46479309 -329.55304705 29.13822831 -313.09350586 26.38452148 C-311.27421961 26.07709151 -309.46373762 25.71820198 -307.65625 25.34765625 C-304.29723784 25.05158382 -301.54518961 25.20797379 -298.2109375 25.5546875 C-271.02978723 27.85561592 -245.92599998 18.57216288 -220.35928345 10.54396057 C-212.23103744 7.99702523 -204.07200099 5.62526749 -195.83984375 3.43359375 C-194.36075783 3.03527344 -194.36075783 3.03527344 -192.85179138 2.62890625 C-185.46402346 0.64098729 -185.46402346 0.64098729 -181.8664856 -0.27502441 C-170.02237724 -3.09669787 -170.02237724 -3.09669787 -161.25024414 -11.125 C-153.48460376 -22.06860595 -134.63334759 -25.99686006 -122.2890625 -28.421875 C-83.1739082 -34.9334781 -30.51956717 -26.80699012 0 0 Z M-150.93359375 3.01953125 C-156.34625575 9.47604892 -156.99786881 16.07740396 -157.68359375 24.26953125 C-157.90568216 26.58741951 -158.12956376 28.90513685 -158.35546875 31.22265625 C-158.4440918 32.24004883 -158.53271484 33.25744141 -158.62402344 34.30566406 C-158.89066548 36.64319796 -159.34985957 38.74942113 -159.93359375 41.01953125 C-160.15749692 43.77271099 -160.34753037 46.51258454 -160.49609375 49.26953125 C-160.53927734 50.01460937 -160.58246094 50.7596875 -160.62695312 51.52734375 C-160.732561 53.35788025 -160.83353576 55.18868301 -160.93359375 57.01953125 C-161.30179044 45.33269558 -160.68341923 34.15724276 -158.9128418 22.58764648 C-158.77402588 21.65895752 -158.63520996 20.73026855 -158.4921875 19.7734375 C-158.29580688 18.54089233 -158.29580688 18.54089233 -158.09545898 17.28344727 C-157.92720468 14.93017103 -158.31439817 13.2754435 -158.93359375 11.01953125 C-169.98356739 14.19213051 -181.03336929 17.36532715 -192.08296108 20.5392561 C-197.21546306 22.01351688 -202.34802075 23.48758303 -207.48071289 24.96118164 C-212.44756134 26.3871746 -217.41425416 27.81370851 -222.38084602 29.24059486 C-224.26188858 29.78091434 -226.14298419 30.32104913 -228.0241375 30.86098289 C-239.67331853 34.20472242 -251.31124882 37.58361798 -262.93359375 41.01953125 C-262.93359375 41.34953125 -262.93359375 41.67953125 -262.93359375 42.01953125 C-262.155 42.15488281 -261.37640625 42.29023438 -260.57421875 42.4296875 C-239.0766503 46.56574042 -214.04153636 54.25482745 -200.1875 72.29296875 C-195.16232195 79.9517387 -195.34999437 87.19662042 -196.93359375 96.01953125 C-197.01996094 95.05273438 -197.10632813 94.0859375 -197.1953125 93.08984375 C-198.52242881 80.79271094 -201.19032157 72.40856054 -211.015625 64.1796875 C-221.175319 56.6585218 -232.06167957 52.07146718 -243.93359375 48.01953125 C-244.97257812 47.65730469 -246.0115625 47.29507813 -247.08203125 46.921875 C-260.24933757 42.75523423 -274.39896437 42.83276595 -288.07836914 42.83422852 C-290.36428352 42.83203778 -292.64971695 42.81379278 -294.93554688 42.79492188 C-306.63974007 42.74835462 -318.10745065 43.36421221 -329.12109375 47.70703125 C-329.79325928 47.96685791 -330.4654248 48.22668457 -331.15795898 48.49438477 C-341.92626343 52.8474741 -351.94983634 60.11179541 -357.109375 70.734375 C-360.04799873 78.8817441 -360.52579299 86.92484354 -361.05859375 95.51953125 C-361.18814453 97.46859375 -361.18814453 97.46859375 -361.3203125 99.45703125 C-361.53122583 102.64416605 -361.73546173 105.83158066 -361.93359375 109.01953125 C-361.98919542 105.91510447 -362.02800553 102.81173606 -362.05859375 99.70703125 C-362.07535156 98.86462891 -362.09210938 98.02222656 -362.109375 97.15429688 C-362.17808342 87.70688962 -361.01717601 78.39001345 -359.93359375 69.01953125 C-360.50448227 69.17938004 -361.07537079 69.33922882 -361.66355896 69.50392151 C-389.96289062 77.42773437 -389.96289062 77.42773437 -393.25357056 78.34909058 C-395.46418583 78.96808574 -397.67477726 79.58716608 -399.88534546 80.20632935 C-405.5065057 81.78065632 -411.12808082 83.3534724 -416.75048828 84.92333984 C-417.85763687 85.23270981 -418.96478546 85.54207977 -420.10548401 85.86082458 C-422.18372968 86.44150497 -424.26211708 87.0216785 -426.34068298 87.60121155 C-433.21983259 89.52411471 -440.08002579 91.50747185 -446.93359375 93.51953125 C-459.23677478 97.1281256 -471.57967498 100.58911273 -483.93359375 104.01953125 C-481.19573355 105.50354839 -479.33743162 106.12882764 -476.18359375 106.70703125 C-458.41503315 110.46012656 -440.4794228 121.41953768 -430.41015625 136.5234375 C-427.60103123 141.27219646 -425.93359375 145.41450229 -425.93359375 151.01953125 C-426.12953125 150.35308594 -426.32546875 149.68664062 -426.52734375 149 C-431.7160009 133.00909541 -442.28957016 123.81998391 -456.93359375 116.20703125 C-483.08750998 103.85736306 -516.87845223 101.87486294 -544.93359375 109.01953125 C-546.18011719 109.29796875 -547.42664063 109.57640625 -548.7109375 109.86328125 C-567.57253088 114.37916326 -586.26270212 122.96522427 -597.18359375 139.70703125 C-603.21491501 150.4186578 -603.52171878 162.03254951 -603.93359375 174.01953125 C-604.35802204 162.19448757 -604.38094818 152.14684775 -599.93359375 141.01953125 C-599.60359375 140.02953125 -599.27359375 139.03953125 -598.93359375 138.01953125 C-605.87066961 139.49016264 -612.67429314 141.27482322 -619.49609375 143.20703125 C-620.57947021 143.51237793 -621.66284668 143.81772461 -622.77905273 144.13232422 C-638.27442145 148.51279105 -653.74527402 152.96424031 -669.09765625 157.82421875 C-674.19034324 159.42554133 -679.31571131 160.91626229 -684.44116211 162.40869141 C-687.28844476 163.23814237 -690.11976683 164.08158894 -692.93359375 165.01953125 C-692.11613877 170.86415869 -691.2136639 176.69364122 -690.296875 182.5234375 C-690.13721756 183.5411322 -689.97756012 184.5588269 -689.81306458 185.60736084 C-689.29127323 188.9323348 -688.76873944 192.25719148 -688.24609375 195.58203125 C-687.87938625 197.91625846 -687.51268712 200.25048699 -687.14599609 202.5847168 C-686.41197365 207.25640315 -685.67755342 211.92802675 -684.94287109 216.59960938 C-684.21721469 221.21420489 -683.49278396 225.82899034 -682.76937866 230.44393921 C-679.56598361 250.8737058 -676.28906097 271.29153025 -672.99609375 291.70703125 C-672.88828835 292.37541142 -672.78048294 293.04379158 -672.66941071 293.73242569 C-670.3925352 307.84690535 -668.11015355 321.96047014 -665.8046875 336.0703125 C-665.56154564 337.55926277 -665.56154564 337.55926277 -665.31349182 339.07829285 C-664.57442587 343.60291222 -663.83384056 348.1272717 -663.09008789 352.65112305 C-662.95890564 353.45312134 -662.82772339 354.25511963 -662.69256592 355.0814209 C-662.44107659 356.61690099 -662.18768911 358.15207169 -661.93218994 359.68688965 C-661.37135191 363.10001419 -660.87979716 366.49052348 -660.48706055 369.92895508 C-659.60157359 377.66594274 -657.92669813 383.15394403 -653.74609375 389.70703125 C-652.65387706 391.51679919 -651.56415595 393.32807492 -650.4765625 395.140625 C-649.8995459 396.08921387 -649.3225293 397.03780273 -648.72802734 398.01513672 C-645.53701621 403.35780108 -642.56023354 408.8189803 -639.55859375 414.26953125 C-638.28195897 416.57461154 -637.00461335 418.8792983 -635.7265625 421.18359375 C-634.77982666 422.89144043 -634.77982666 422.89144043 -633.81396484 424.63378906 C-629.12532509 433.07601914 -624.39510127 441.49505961 -619.671875 449.91796875 C-617.91368552 453.05505289 -616.15768031 456.19334998 -614.40234375 459.33203125 C-608.23682944 470.35483636 -602.04993017 481.36496283 -595.82788086 492.35595703 C-591.25829279 500.43279213 -586.7243545 508.52931247 -582.19482422 516.62866211 C-576.14244081 527.44523549 -570.04237053 538.23473002 -563.93359375 549.01953125 C-557.20186091 546.92083726 -550.77754824 544.33634363 -544.32421875 541.50390625 C-542.79454216 540.83816086 -542.79454216 540.83816086 -541.23396301 540.15896606 C-537.88229283 538.69934209 -534.5329698 537.23441088 -531.18359375 535.76953125 C-528.82626733 534.74194451 -526.46876102 533.71477034 -524.11108398 532.68798828 C-519.81923725 530.8185339 -515.5278333 528.94807684 -511.23714733 527.07596016 C-499.96109141 522.15625553 -488.67466365 517.26049098 -477.38781738 512.36560059 C-472.88867059 510.4142161 -468.38997456 508.46179362 -463.89126587 506.50939941 C-452.80493386 501.69815827 -441.71693092 496.89079728 -430.62719727 492.08740234 C-417.89335546 486.57086552 -405.16374579 481.04457597 -392.43359375 475.51953125 C-366.64391905 464.32678926 -340.85036013 453.14320201 -315.04492188 441.98684692 C-303.45058445 436.97431452 -291.85901999 431.95544936 -280.26977539 426.93115234 C-273.75161984 424.1056726 -267.23223833 421.28305721 -260.7109375 418.46484375 C-259.99955124 418.15740738 -259.28816498 417.84997101 -258.55522156 417.53321838 C-257.83131729 417.22037399 -257.10741302 416.9075296 -256.36157227 416.58520508 C-235.78391767 407.69224327 -215.2191588 398.76968207 -194.65585327 389.84359741 C-193.55125763 389.36411652 -192.44666199 388.88463562 -191.30859375 388.390625 C-189.67816635 387.68288437 -189.67816635 387.68288437 -188.01480103 386.96084595 C-176.11653996 381.79628439 -164.21523863 376.63875912 -152.31298828 371.48339844 C-146.81963501 369.10381845 -141.3266711 366.72334002 -135.8336792 364.34292603 C-133.94333249 363.5237515 -132.05296813 362.70461773 -130.16259766 361.88549805 C-124.00143445 359.21577739 -117.8404136 356.54572924 -111.6796875 353.875 C-106.08337677 351.4490427 -100.48672289 349.02387929 -94.88969421 346.59957886 C-91.52719223 345.14314014 -88.16482588 343.68638994 -84.80273438 342.22900391 C-67.67870463 334.8067197 -50.54258862 327.41345773 -33.38476562 320.06958008 C-29.14917875 318.25619418 -24.91628663 316.4367253 -20.68554688 314.61206055 C-3.60760043 307.25477001 -3.60760043 307.25477001 4.45890808 304.04304504 C7.29867371 302.91199835 10.12891197 301.75819924 12.95877075 300.60263062 C14.80925276 299.85998497 16.67486599 299.15538824 18.54077148 298.45239258 C23.75259824 296.31584094 27.3304845 294.80076623 29.609375 289.45703125 C30.14309648 287.65809271 30.62620923 285.84361049 31.06640625 284.01953125 C31.35491455 283.01946045 31.64342285 282.01938965 31.94067383 280.98901367 C32.86830316 277.74018859 33.72484311 274.47913633 34.56640625 271.20703125 C35.13688393 269.01238539 35.70980272 266.81837264 36.28515625 264.625 C36.65543945 263.18870239 36.65543945 263.18870239 37.03320312 261.72338867 C37.91953681 258.54603321 38.86716371 255.4026279 39.8449707 252.25268555 C42.4734246 243.76217449 44.92838808 235.22340237 47.390625 226.68359375 C47.90132915 224.91552777 48.41213984 223.14749256 48.92304993 221.37948608 C50.26366281 216.73933623 51.60297337 212.09881155 52.94195557 207.45819092 C55.05949782 200.12025359 57.17921853 192.78294496 59.29849052 185.44550705 C60.07555067 182.75500713 60.85248249 180.06447017 61.62940979 177.37393188 C64.78074227 166.46199359 67.93825034 155.55186951 71.10546875 144.64453125 C71.45643112 143.43584381 71.80739349 142.22715637 72.16899109 140.98184204 C74.35712047 133.45073474 76.55370812 125.92212045 78.75390625 118.39453125 C81.90185502 107.61528296 84.99480612 96.82076249 88.06640625 86.01953125 C84.35483629 81.66202508 79.62472136 79.31175994 74.69140625 76.58203125 C72.78565031 75.51055047 70.88072797 74.43758596 68.9765625 73.36328125 C67.99703613 72.8115625 67.01750977 72.25984375 66.00830078 71.69140625 C61.34902165 69.04354372 56.73754529 66.31681894 52.12890625 63.58203125 C50.76946899 62.77620605 50.76946899 62.77620605 49.38256836 61.95410156 C47.53960682 60.86113136 45.69691523 59.76770584 43.85449219 58.67382812 C38.2437272 55.34470872 32.62685408 52.02587554 27.00683594 48.71240234 C22.66490137 46.15171382 18.32998033 43.58091266 14.01171875 40.98046875 C13.22708252 40.51084717 12.44244629 40.04122559 11.6340332 39.55737305 C10.17103479 38.68134791 8.71103376 37.80028992 7.25463867 36.91333008 C3.43368731 34.59106969 3.43368731 34.59106969 -0.93359375 34.01953125 C-1.26359375 34.67953125 -1.59359375 35.33953125 -1.93359375 36.01953125 C-1.77890625 34.59640625 -1.77890625 34.59640625 -1.62109375 33.14453125 C-1.69880215 25.42031666 -6.32839728 19.30736985 -11.43359375 13.89453125 C-37.46301833 -10.56316077 -77.96200428 -12.02928042 -111.60644531 -11.1328125 C-125.14905435 -10.51272239 -141.23740234 -7.21881279 -150.93359375 3.01953125 Z " fill="#1F1916" transform="translate(841.93359375,268.98046875)"/>
<path d="M0 0 C2.74398083 3.34838189 5.24518758 6.7597105 7.625 10.375 C10.57473023 14.84825253 13.53723384 19.31269532 16.51171875 23.76953125 C19.79461783 28.69092905 23.07482213 33.61410123 26.35136414 38.53973389 C37.28664076 54.97820376 48.23904848 71.40419134 59.3125 87.75 C59.76506165 88.41818756 60.21762329 89.08637512 60.68389893 89.77481079 C63.06025254 93.28315395 65.43726186 96.7910525 67.81445312 100.29882812 C73.41845969 108.56870647 79.01992255 116.84028648 84.6133728 125.11730957 C85.89805398 127.01730775 87.18369638 128.91665641 88.47036743 130.81530762 C90.27564927 133.4794002 92.07761568 136.14570772 93.87890625 138.8125 C94.40921448 139.59345032 94.93952271 140.37440063 95.48590088 141.17901611 C106.61549464 157.68697733 106.61549464 157.68697733 107.1875 164.75 C107.24736084 165.38196289 107.30722168 166.01392578 107.36889648 166.66503906 C107.5102025 168.17161811 107.64052201 169.67924886 107.76269531 171.1875 C108.22751955 176.69652801 108.80549117 182.19517536 109.35855103 187.69592285 C109.56026375 189.72747756 109.75507122 191.75958601 109.94799805 193.79199219 C110.06957275 195.05172852 110.19114746 196.31146484 110.31640625 197.609375 C110.42412354 198.74342773 110.53184082 199.87748047 110.64282227 201.04589844 C110.91882556 203.85819798 110.91882556 203.85819798 111.50439453 205.98486328 C112.20895221 208.84960173 112.37805198 211.69314499 112.61328125 214.6328125 C112.72566206 215.99245228 112.83830445 217.35207045 112.95117188 218.71166992 C113.00974365 219.42938568 113.06831543 220.14710144 113.12866211 220.88656616 C114.17980652 233.68543594 115.44719845 246.43993692 117 259.1875 C118.30032706 269.88579134 119.492691 280.5814767 120.5 291.3125 C121.57908487 302.80223403 122.75355923 314.27737287 124 325.75 C124.08455444 326.53096039 124.16910889 327.31192078 124.25622559 328.11654663 C125.11775363 336.06791334 125.99622349 344.01676381 126.921875 351.9609375 C127.06238281 353.17942383 127.20289063 354.39791016 127.34765625 355.65332031 C127.60509622 357.87467733 127.86763074 360.09545357 128.13671875 362.31542969 C128.8993667 368.907193 129.14659336 375.36583607 129 382 C126.05948414 378.50258349 123.74717753 374.98833825 121.56640625 370.9765625 C121.25238358 370.40265778 120.9383609 369.82875305 120.61482239 369.23745728 C119.94262309 368.00794444 119.27254786 366.77726831 118.60443115 365.54553223 C116.82300232 362.26192613 115.0254864 358.98712834 113.23046875 355.7109375 C112.68957611 354.722146 112.68957611 354.722146 112.13775635 353.71337891 C108.93455053 347.86317891 105.66822121 342.05000154 102.375 336.25 C96.13093303 325.2419412 89.94362589 314.20274869 83.76611328 303.15722656 C80.84601863 297.93706289 77.92286434 292.71861321 75 287.5 C73.83331846 285.41667499 72.6666518 283.33334166 71.5 281.25 C70.9225 280.21875 70.345 279.1875 69.75 278.125 C64.5 268.75 64.5 268.75 62.74804688 265.62133789 C61.58808909 263.55010043 60.42793469 261.47897306 59.26757812 259.40795898 C56.24659597 254.01547186 53.22964498 248.62078291 50.21875 243.22265625 C49.59613281 242.10761719 48.97351563 240.99257813 48.33203125 239.84375 C47.15106137 237.72858007 45.97128258 235.61274446 44.79296875 233.49609375 C44.25285156 232.52929688 43.71273437 231.5625 43.15625 230.56640625 C42.63321289 229.6220874 42.11017578 228.67776855 41.57128906 227.70483398 C40.0523761 225.01186427 40.0523761 225.01186427 38.35839844 222.60961914 C33.86799789 215.97932661 32.59213082 209.4201286 31.55517578 201.60910034 C31.2377038 199.21996492 30.89356282 196.8359074 30.54296875 194.45141602 C30.14574422 191.74711258 29.75046081 189.04263444 29.3626709 186.33695984 C27.6003412 174.06400077 25.61875529 161.8250281 23.66171265 149.58197021 C22.99646764 145.41856938 22.33535977 141.25451787 21.67504883 137.09033203 C19.35037024 122.43444615 17.0025145 107.7826811 14.60165405 93.1390686 C12.92549285 82.90206309 11.32149629 72.65473782 9.7421875 62.40234375 C9.54244827 61.10723373 9.34270905 59.81212372 9.13691711 58.47776794 C8.13911408 52.00437928 7.14535543 45.53040614 6.15795898 39.05541992 C3.67073457 22.81660651 3.67073457 22.81660651 0.50463867 6.70068359 C0 4 0 4 0 0 Z " fill="#7B0101" transform="translate(149,434)"/>
<path d="M0 0 C6.82131159 5.79344272 12.24061592 12.04175569 13.40625 21.1875 C13.91187245 39.72698995 9.08292975 60.32928027 -3.625 74.25 C-12.20005484 82.28911392 -22.65249769 85.18295562 -34 87 C-35.24652344 87.20496094 -36.49304688 87.40992188 -37.77734375 87.62109375 C-74.16249487 92.89167009 -74.16249487 92.89167009 -86 85 C-88.34594993 84.57662708 -90.70237637 84.21047303 -93.0625 83.875 C-109.23918374 81.17361838 -128.82384016 72.19217437 -140 60 C-140.58910156 59.37609375 -141.17820312 58.7521875 -141.78515625 58.109375 C-148.66133262 49.14998347 -146.00952773 37.75698147 -144.64794922 27.29492188 C-144.06471199 23.06856517 -143.41869065 18.85691348 -142.71875 14.6484375 C-142.03678824 10.53471067 -141.65725095 6.43166647 -141.36743164 2.27294922 C-140.44258761 -3.44817899 -136.80607487 -7.61072933 -132.4375 -11.1875 C-99.13832619 -34.00704555 -30.09608777 -25.143567 0 0 Z " fill="#FE0101" transform="translate(827,280)"/>
<path d="M0 0 C1.27230469 0.89138672 1.27230469 0.89138672 2.5703125 1.80078125 C10.49264131 7.70114256 17.13233537 15.38488918 20 25 C21.28263476 35.21297929 18.59608409 43.90798666 12.5 52.125 C-4.05859951 71.4433661 -31.60013601 79.49552036 -56.15722656 81.80151367 C-85.3341912 83.83868923 -113.60366444 81.37049627 -139 66 C-139.67160156 65.63777344 -140.34320313 65.27554688 -141.03515625 64.90234375 C-147.61469569 60.96061511 -152.6098244 52.78035121 -156 46 C-157.24453933 32.64513562 -153.56483668 20.9441155 -145.06640625 10.66015625 C-113.13828901 -23.61130904 -37.38684357 -26.94247624 0 0 Z " fill="#FE0101" transform="translate(395,391)"/>
<path d="M0 0 C2.24417438 0.01068077 4.48753977 0.00005972 6.73168945 -0.01269531 C16.61992554 -0.0216227 26.16213237 0.79948728 35.94458008 2.26074219 C36.85997559 2.39536865 37.77537109 2.52999512 38.71850586 2.66870117 C56.91859276 5.54596609 76.53676306 14.54923863 88.88208008 28.32324219 C92.09000115 32.89209947 94.29733394 37.6944254 94.94458008 43.26074219 C95.09024414 43.94523437 95.2359082 44.62972656 95.38598633 45.33496094 C95.9621945 49.86439483 95.40841764 52.90631491 92.77270508 56.62402344 C88.01537935 62.6744449 82.97746207 67.975646 75.94458008 71.26074219 C74.85145508 71.83308594 73.75833008 72.40542969 72.63208008 72.99511719 C55.56167139 81.56141517 37.58894272 81.51943989 18.88208008 81.57324219 C18.03628387 81.5770993 17.19048767 81.58095642 16.31906128 81.58493042 C3.40557143 81.61389251 -8.63843383 80.81737206 -20.93041992 76.51074219 C-22.07740356 76.11495972 -22.07740356 76.11495972 -23.24755859 75.71118164 C-25.52409369 74.91295922 -27.7912237 74.09326426 -30.05541992 73.26074219 C-30.70365723 73.02339355 -31.35189453 72.78604492 -32.01977539 72.54150391 C-46.606862 67.07665679 -59.48257855 59.26378515 -66.27416992 44.63574219 C-68.22045601 38.71903247 -65.33150209 31.82336453 -63.05541992 26.26074219 C-55.69187155 13.11154866 -42.12796354 6.33204412 -28.05541992 2.26074219 C-18.70684087 0.26984892 -9.51011336 -0.05359552 0 0 Z " fill="#FE0101" transform="translate(549.055419921875,311.7392578125)"/>
<path d="M0 0 C0.99 0.495 0.99 0.495 2 1 C5.06130062 19.45216286 6.58881289 44.31217328 -3 61 C-3.58007812 62.01449219 -4.16015625 63.02898437 -4.7578125 64.07421875 C-15.91881943 81.18931933 -38.68554733 90.66084302 -58 95 C-61.17685958 95.63080809 -64.35834289 96.15412387 -67.5625 96.625 C-68.3867749 96.74979736 -69.2110498 96.87459473 -70.06030273 97.00317383 C-82.63970729 98.87622616 -94.49175626 99.64022828 -107.125 97.75 C-108.49350098 97.54540161 -108.49350098 97.54540161 -109.88964844 97.33666992 C-132.52453326 93.81309098 -153.61879191 86.87367421 -168 68 C-174.72582701 57.12968684 -176.15250656 46.40581707 -177.125 33.875 C-177.25455078 32.2971875 -177.25455078 32.2971875 -177.38671875 30.6875 C-177.5963473 28.12537327 -177.80068114 25.56294577 -178 23 C-177.67 23 -177.34 23 -177 23 C-176.67 21.02 -176.34 19.04 -176 17 C-173.53939655 20.02843502 -171.12796222 23.09389512 -168.75 26.1875 C-168.22921875 26.86167969 -167.7084375 27.53585937 -167.171875 28.23046875 C-166 30 -166 30 -166 32 C-165.20335937 32.37898438 -165.20335937 32.37898438 -164.390625 32.765625 C-161.4268128 34.2959594 -158.61030969 36.03381418 -155.75 37.75 C-125.59485932 55.24644255 -86.43940075 56.1764105 -53.3125 47.6875 C-34.87134983 42.69013838 -16.24536832 35.15010035 -5.40234375 18.515625 C-2.12467996 12.63591614 -0.70697067 6.6455243 0 0 Z " fill="#AD0101" transform="translate(415,420)"/>
<path d="M0 0 C2 1 2 1 3.25 4.0625 C8.68507224 16.95438634 20.03377827 23.08701924 32.41650391 28.27514648 C46.55338483 33.95154103 60.24084647 38.11246427 75.57421875 38.203125 C76.37216858 38.21022995 77.17011841 38.2173349 77.99224854 38.22465515 C111.57522708 38.62791797 111.57522708 38.62791797 143 28 C143.79535156 27.62230469 144.59070313 27.24460937 145.41015625 26.85546875 C150.65599632 24.07089758 154.08472783 19.63256501 157.67724609 15.01293945 C158.74616704 13.64419921 159.86909427 12.31798865 161 11 C161.66 11 162.32 11 163 11 C167.34348107 19.68696214 162.45147734 35.98674139 159.8984375 44.8046875 C155.63509389 56.49450064 149.70370609 65.60281219 138.5625 71.5 C136.71954059 72.35783396 134.86385202 73.18856047 133 74 C131.85789062 74.50789063 130.71578125 75.01578125 129.5390625 75.5390625 C110.90800922 83.40943085 89.99600367 84.41284257 70 83 C69.34 82.67 68.68 82.34 68 82 C66.10811609 81.70283005 64.2112072 81.43739135 62.3125 81.1875 C41.95161883 78.09980593 18.32447121 70.71291226 5 54 C-0.35157573 45.19912171 -3.61266227 36.97225219 -2.5390625 26.66015625 C-2.46964447 25.89319931 -2.40022644 25.12624237 -2.32870483 24.33604431 C-2.10633599 21.91020657 -1.86598339 19.48655196 -1.625 17.0625 C-1.47015802 15.40831466 -1.31650035 13.754018 -1.1640625 12.09960938 C-0.7897225 8.06499007 -0.39925551 4.0322268 0 0 Z " fill="#AD0101" transform="translate(482,354)"/>
<path d="M0 0 C0.33 0 0.66 0 1 0 C1.07476563 0.60585938 1.14953125 1.21171875 1.2265625 1.8359375 C2.79641596 11.83990563 7.33533254 19.52270013 15.140625 25.9921875 C32.16353454 37.94543272 50.60927653 42.66402642 71 45 C72.22807373 45.14248169 72.22807373 45.14248169 73.48095703 45.2878418 C81.01273665 46.06949476 88.53929294 46.2528755 96.10498047 46.29516602 C97.52793335 46.30666495 98.95084381 46.32708413 100.37353516 46.35668945 C116.72778468 46.69464959 133.73685816 43.6307128 146.65234375 32.76953125 C148.52836746 30.90669576 150.30458183 29.02713042 152 27 C154.89744705 31.34617057 153.63574382 34.26805094 152.7578125 39.2578125 C149.65419345 54.58393129 145.6884994 67.97041573 133 78 C124.88509471 83.26030031 116.46446843 85.48448067 107 87 C105.75347656 87.20496094 104.50695312 87.40992188 103.22265625 87.62109375 C66.83750513 92.89167009 66.83750513 92.89167009 55 85 C52.65405007 84.57662708 50.29762363 84.21047303 47.9375 83.875 C31.76081626 81.17361838 12.17615984 72.19217437 1 60 C0.41089844 59.37609375 -0.17820312 58.7521875 -0.78515625 58.109375 C-7.66133262 49.14998347 -5.00952773 37.75698147 -3.64794922 27.29492188 C-3.06471199 23.06856517 -2.41869065 18.85691348 -1.71875 14.6484375 C-0.9240222 9.78595822 -0.43837362 4.90591655 0 0 Z " fill="#AD0101" transform="translate(686,280)"/>
<path d="M0 0 C2 1 2 1 3.25 4.0625 C8.68534663 16.95503717 20.03271753 23.08396294 32.41430664 28.27490234 C44.03902123 32.93971558 55.42540486 36.74536753 67.92578125 38.1015625 C68.70586548 38.18962158 69.48594971 38.27768066 70.28967285 38.3684082 C72.19269662 38.5826897 74.09629298 38.79187597 76 39 C75.59543521 44.33888513 75.18638504 49.67740059 74.77319336 55.015625 C74.63329021 56.83128575 74.49460839 58.64704105 74.35717773 60.46289062 C74.15930858 63.07447779 73.95703486 65.6856923 73.75390625 68.296875 C73.6934462 69.10743347 73.63298615 69.91799194 73.57069397 70.75311279 C73.29321665 74.2708534 72.92344614 77.59579393 72 81 C51.32563695 82.49573366 27.6495468 74.13339869 11.60546875 61.046875 C3.89688818 53.93912907 -0.62087873 45.17263806 -3 35 C-3.08211374 32.19087995 -2.82980446 29.45277883 -2.5390625 26.66015625 C-2.46964447 25.89319931 -2.40022644 25.12624237 -2.32870483 24.33604431 C-2.10633599 21.91020657 -1.86598339 19.48655196 -1.625 17.0625 C-1.47015802 15.40831466 -1.31650035 13.754018 -1.1640625 12.09960938 C-0.7897225 8.06499007 -0.39925551 4.0322268 0 0 Z " fill="#7B0101" transform="translate(482,354)"/>
<path d="M0 0 C0.33 0 0.66 0 1 0 C1.07476563 0.60585938 1.14953125 1.21171875 1.2265625 1.8359375 C2.79641596 11.83990563 7.33533254 19.52270013 15.140625 25.9921875 C29.19161049 35.85858988 45.04778206 41.59364703 62 44 C61.66799081 52.6156384 60.04820442 60.58167038 57.98828125 68.90625 C56.75817888 73.89635367 55.8323089 78.92948656 55 84 C38.45503595 85.29764424 19.70042226 74.95237768 7 65 C5.9275 64.236875 4.855 63.47375 3.75 62.6875 C-1.47738207 57.57892207 -5.09366177 53.19341649 -5.2578125 45.60546875 C-5.02569807 35.21236288 -3.42157066 24.88684815 -1.71875 14.6484375 C-0.9240222 9.78595822 -0.43837362 4.90591655 0 0 Z " fill="#7B0101" transform="translate(686,280)"/>
<path d="M0 0 C2.46060345 3.02843502 4.87203778 6.09389512 7.25 9.1875 C7.77078125 9.86167969 8.2915625 10.53585937 8.828125 11.23046875 C10 13 10 13 10 15 C12.28581741 16.17325752 14.55904145 17.23081142 16.93652344 18.21240234 C25.26639584 22.14659416 25.26639584 22.14659416 27.25585938 27.17285156 C27.86410569 31.01642851 28.12405651 34.73601767 28.25 38.625 C28.33894531 39.91535156 28.42789062 41.20570313 28.51953125 42.53515625 C29.0366668 50.68619757 29.09346954 58.83526282 29 67 C20.26381284 65.49984665 14.15878767 59.36368606 9.10546875 52.3828125 C2.51920785 42.37169593 0.40548509 33.82125628 -0.8125 22 C-0.95880859 20.76765625 -1.10511719 19.5353125 -1.25585938 18.265625 C-1.96458048 11.62715191 -2.18049245 6.34325076 0 0 Z " fill="#7B0101" transform="translate(239,437)"/>
<path d="M0 0 C0.66 0.33 1.32 0.66 2 1 C1.72285156 1.94617188 1.44570312 2.89234375 1.16015625 3.8671875 C-1.74057483 14.27788474 -2.75033237 24.21435836 -3 35 C-3.66 34.67 -4.32 34.34 -5 34 C-5.41806141 22.35234462 -5.73477496 11.89568695 -1 1 C-0.67 0.67 -0.34 0.34 0 0 Z " fill="#261815" transform="translate(242,409)"/>
<path d="M0 0 C0.66 0.33 1.32 0.66 2 1 C0.68 6.28 -0.64 11.56 -2 17 C-2.33 17 -2.66 17 -3 17 C-4.50717296 10.09212392 -3.3284547 6.17121215 0 0 Z " fill="#391714" transform="translate(242,409)"/>
<path d="M0 0 C0.33 0.66 0.66 1.32 1 2 C1.66 2 2.32 2 3 2 C2.67 5.3 2.34 8.6 2 12 C1.01 12.33 0.02 12.66 -1 13 C-0.67 8.71 -0.34 4.42 0 0 Z " fill="#341714" transform="translate(683,284)"/>
<path d="M0 0 C3.63 0.66 7.26 1.32 11 2 C7.22395846 4.51736102 4.68994863 5.2628809 0.1875 4.5625 C-0.534375 4.376875 -1.25625 4.19125 -2 4 C-1.34 3.67 -0.68 3.34 0 3 C0 2.01 0 1.02 0 0 Z " fill="#3B1614" transform="translate(357,373)"/>
<path d="M0 0 C0.99 0 1.98 0 3 0 C4.42258812 3.82320557 5.24042276 6.91281305 5 11 C3 10 3 10 2.1484375 7.71484375 C1.89320313 6.79832031 1.63796875 5.88179688 1.375 4.9375 C1.11460937 4.01839844 0.85421875 3.09929687 0.5859375 2.15234375 C0.39257812 1.44207031 0.19921875 0.73179687 0 0 Z " fill="#3A1614" transform="translate(412,410)"/>
</svg>
